<?xml version="1.0" encoding="UTF-8" standalone="no"?>
<!DOCTYPE svg PUBLIC "-//W3C//DTD SVG 1.1//EN" "http://www.w3.org/Graphics/SVG/1.1/DTD/svg11.dtd">
<svg width="100%" height="100%" viewBox="0 0 900 500" version="1.1" xmlns="http://www.w3.org/2000/svg" xmlns:xlink="http://www.w3.org/1999/xlink" xml:space="preserve" xmlns:serif="http://www.serif.com/" style="fill-rule:evenodd;clip-rule:evenodd;stroke-linejoin:round;stroke-miterlimit:2;">
    <g transform="matrix(1.5843,0,0,1.5843,-200.354,-225.289)">
        <g transform="matrix(1,0,0,1,62.6316,111.891)">
            <g transform="matrix(1,0,0,1,117.503,325.646)">
                <g transform="matrix(386.341,0,0,386.341,0,0)">
                    <path d="M0.437,-0.362L0.711,0L0.474,0L0.251,-0.313L0.251,0L0.054,0L0.054,-0.708L0.251,-0.708L0.251,-0.402L0.476,-0.708L0.711,-0.708L0.437,-0.362Z" style="fill:rgb(34,134,211);fill-rule:nonzero;"/>
                </g>
            </g>
            <g transform="matrix(1,0,0,1,396.442,325.646)">
                <g transform="matrix(386.341,0,0,386.341,0,0)">
                    <path d="M0.582,-0.204C0.582,-0.165 0.572,-0.129 0.552,-0.097C0.532,-0.065 0.503,-0.04 0.464,-0.021C0.425,-0.002 0.379,0.007 0.325,0.007C0.243,0.007 0.175,-0.013 0.123,-0.052C0.07,-0.091 0.041,-0.147 0.036,-0.22L0.245,-0.22C0.247,-0.195 0.255,-0.177 0.268,-0.165C0.281,-0.153 0.298,-0.147 0.317,-0.147C0.334,-0.147 0.348,-0.151 0.358,-0.16C0.367,-0.169 0.372,-0.181 0.372,-0.197C0.372,-0.218 0.362,-0.235 0.343,-0.247C0.324,-0.258 0.293,-0.271 0.251,-0.285C0.206,-0.3 0.17,-0.315 0.141,-0.33C0.112,-0.345 0.086,-0.367 0.066,-0.396C0.045,-0.425 0.034,-0.463 0.034,-0.509C0.034,-0.553 0.045,-0.591 0.068,-0.623C0.091,-0.654 0.122,-0.678 0.161,-0.695C0.2,-0.711 0.245,-0.719 0.295,-0.719C0.376,-0.719 0.441,-0.7 0.49,-0.662C0.538,-0.623 0.564,-0.569 0.569,-0.5L0.358,-0.5C0.355,-0.522 0.348,-0.538 0.338,-0.549C0.327,-0.56 0.312,-0.565 0.294,-0.565C0.279,-0.565 0.267,-0.561 0.258,-0.553C0.249,-0.545 0.245,-0.533 0.245,-0.517C0.245,-0.497 0.255,-0.481 0.274,-0.47C0.293,-0.459 0.322,-0.446 0.363,-0.432C0.408,-0.416 0.445,-0.4 0.474,-0.385C0.503,-0.37 0.529,-0.347 0.55,-0.318C0.571,-0.289 0.582,-0.251 0.582,-0.204Z" style="fill:rgb(216,49,91);fill-rule:nonzero;"/>
                </g>
            </g>
        </g>
        <g transform="matrix(1,0,0,1,137.674,437.537)">
            <g transform="matrix(386.341,0,0,386.341,0,0)">
                <path d="M0.437,-0.362L0.711,0L0.474,0L0.251,-0.313L0.251,0L0.054,0L0.054,-0.708L0.251,-0.708L0.251,-0.402L0.476,-0.708L0.711,-0.708L0.437,-0.362Z" style="fill:white;fill-rule:nonzero;"/>
            </g>
            <g transform="matrix(386.341,0,0,386.341,278.938,0)">
                <path d="M0.582,-0.204C0.582,-0.165 0.572,-0.129 0.552,-0.097C0.532,-0.065 0.503,-0.04 0.464,-0.021C0.425,-0.002 0.379,0.007 0.325,0.007C0.243,0.007 0.175,-0.013 0.123,-0.052C0.07,-0.091 0.041,-0.147 0.036,-0.22L0.245,-0.22C0.247,-0.195 0.255,-0.177 0.268,-0.165C0.281,-0.153 0.298,-0.147 0.317,-0.147C0.334,-0.147 0.348,-0.151 0.358,-0.16C0.367,-0.169 0.372,-0.181 0.372,-0.197C0.372,-0.218 0.362,-0.235 0.343,-0.247C0.324,-0.258 0.293,-0.271 0.251,-0.285C0.206,-0.3 0.17,-0.315 0.141,-0.33C0.112,-0.345 0.086,-0.367 0.066,-0.396C0.045,-0.425 0.034,-0.463 0.034,-0.509C0.034,-0.553 0.045,-0.591 0.068,-0.623C0.091,-0.654 0.122,-0.678 0.161,-0.695C0.2,-0.711 0.245,-0.719 0.295,-0.719C0.376,-0.719 0.441,-0.7 0.49,-0.662C0.538,-0.623 0.564,-0.569 0.569,-0.5L0.358,-0.5C0.355,-0.522 0.348,-0.538 0.338,-0.549C0.327,-0.56 0.312,-0.565 0.294,-0.565C0.279,-0.565 0.267,-0.561 0.258,-0.553C0.249,-0.545 0.245,-0.533 0.245,-0.517C0.245,-0.497 0.255,-0.481 0.274,-0.47C0.293,-0.459 0.322,-0.446 0.363,-0.432C0.408,-0.416 0.445,-0.4 0.474,-0.385C0.503,-0.37 0.529,-0.347 0.55,-0.318C0.571,-0.289 0.582,-0.251 0.582,-0.204Z" style="fill:white;fill-rule:nonzero;"/>
            </g>
        </g>
    </g>
</svg>
